#!OML:ASF F:\VICON\USERDATA\INSTALL\rory3\rory3.ASF
:FULLY-SPECIFIED
:DEGREES
1923
root 0.22817 16.7186 -4.90361 2.5374 4.66753 4.49369
lowerback 11.9211 -1.63244 -5.897
upperback 2.05151 -2.82147 1.6646
thorax -4.14998 -1.31052 5.50753
lowerneck -14.8836 -3.45046 -15.3624
upperneck 22.9103 -3.1773 9.13379
head 10.1615 -1.77519 5.43853
rclavicle 1.98785e-015 -7.15625e-015
rhumerus -22.0606 5.24019 -84.3168
rradius 140.793
rwrist -3.47299
rhand -3.86615 21.4741
rfingers 7.12502
rthumb 21.8825 -7.30849
lclavicle 1.98785e-015 -7.15625e-015
lhumerus 2.1509 -20.122 90.2583
lradius 125.678
lwrist -12.2669
lhand -0.927961 7.61903
lfingers 7.12502
lthumb 24.7013 36.0445
rfemur -35.1386 -10.6328 9.12685
rtibia 52.2313
rfoot -15.8283 -3.44818
rtoes 6.61678
lfemur -9.36306 -10.2102 -5.38291
ltibia 45.4241
lfoot -15.1709 1.85747
ltoes -26.6258
1924
root 0.32006 16.7275 -4.95482 2.42787 4.24579 4.29931
lowerback 11.8249 -1.85469 -5.98375
upperback 2.0172 -3.11447 1.84294
thorax -4.07786 -1.45633 5.78275
lowerneck -14.3585 -3.36029 -15.1354
upperneck 22.9142 -3.20585 9.16347
head 10.0599 -1.77725 5.40614
rclavicle -4.85035e-014 -1.11319e-014
rhumerus -21.4959 5.01463 -83.5733
rradius 141.691
rwrist -4.46415
rhand -5.29572 21.9371
rfingers 7.12502
rthumb 20.5093 -6.99957
lclavicle -4.85035e-014 -1.11319e-014
lhumerus 1.37389 -19.6204 90.1278
lradius 125.673
lwrist -12.4582
lhand -1.2973 7.16323
lfingers 7.12502
lthumb 24.3472 35.6367
rfemur -35.0052 -10.303 9.00134
rtibia 51.6183
rfoot -15.3071 -3.48123
rtoes 6.9937
lfemur -8.72514 -9.72148 -5.74525
ltibia 45.1998
lfoot -16.5228 0.189185
ltoes -28.4077
1925
root 0.418214 16.739 -5.00795 2.34799 3.76786 4.29262
lowerback 11.6966 -2.07076 -6.21949
upperback 2.01704 -3.41723 1.98194
thorax -3.9411 -1.60928 6.09765
lowerneck -14.004 -3.3415 -15.0264
upperneck 22.9888 -3.28405 9.21394
head 10.0267 -1.80899 5.39801
rclavicle -4.17448e-014 1.90833e-014
rhumerus -20.533 4.78235 -82.725
rradius 142.444
rwrist -5.40179
rhand -6.5161 22.2103
rfingers 7.12502
rthumb 19.3362 -6.8484
lclavicle -4.17448e-014 1.90833e-014
lhumerus 0.735054 -19.0712 90.0065
lradius 125.772
lwrist -12.2894
lhand -1.06392 7.44908
lfingers 7.12502
lthumb 24.5709 35.8923
rfemur -34.8996 -10.0507 8.65854
rtibia 50.9779
rfoot -14.7024 -3.47155
rtoes 7.22482
lfemur -8.10554 -9.30276 -6.37936
ltibia 44.983
lfoot -17.8017 -1.5663
ltoes -29.8466
1926
root 0.519103 16.7467 -5.06656 2.21565 3.21775 4.16629
lowerback 11.7154 -2.25494 -6.32774
upperback 2.0028 -3.67086 2.11753
thorax -3.91247 -1.73468 6.33853
lowerneck -13.7369 -3.30738 -14.8775
upperneck 23.1034 -3.36419 9.36855
head 10.0245 -1.82632 5.42326
rclavicle 4.29375e-014 -4.77083e-015
rhumerus -19.4036 4.33522 -81.8214
rradius 143.25
rwrist -6.69306
rhand -7.22263 22.1468
rfingers 7.12502
rthumb 18.6567 -6.9785
lclavicle 4.29375e-014 -4.77083e-015
lhumerus 0.0125641 -18.4531 89.8874
lradius 125.9
lwrist -11.8355
lhand -0.773754 7.60674
lfingers 7.12502
lthumb 24.849 36.0119
rfemur -34.8045 -9.68258 8.44304
rtibia 50.3136
rfoot -14.0428 -3.55344
rtoes 7.5035
lfemur -7.4707 -8.78101 -6.89385
ltibia 44.7754
lfoot -18.8043 -3.29178
ltoes -30.956
1927
root 0.62304 16.7508 -5.12752 2.06731 2.60787 3.99471
lowerback 11.7393 -2.41025 -6.3579
upperback 2.00083 -3.87834 2.21489
thorax -3.88679 -1.83852 6.48791
lowerneck -13.4791 -3.29166 -14.5717
upperneck 23.1848 -3.48374 9.43812
head 10.0129 -1.8564 5.38382
rclavicle -2.22639e-014 -3.18055e-015
rhumerus -18.1578 3.62884 -80.8374
rradius 144.008
rwrist -7.96391
rhand -7.72281 22.0022
rfingers 7.12502
rthumb 18.1755 -7.16857
lclavicle -2.22639e-014 -3.18055e-015
lhumerus -0.79383 -17.9389 89.7474
lradius 125.98
lwrist -11.6512
lhand -1.01786 7.5411
lfingers 7.12502
lthumb 24.6151 35.9783
rfemur -34.7109 -9.28758 8.27819
rtibia 49.6367
rfoot -13.3538 -3.56873
rtoes 8.20614
lfemur -6.81357 -8.06295 -7.35999
ltibia 44.5755
lfoot -19.519 -4.73995
ltoes -33.7532
